<svg xmlns="http://www.w3.org/2000/svg" viewBox="0 0 1200 680" role="img" aria-labelledby="title desc">
  <title id="title">Original inclusive life stages illustration</title>
  <desc id="desc">An original inclusive life-stage illustration with people of different ages and mobility needs.</desc>
  <defs>
    <linearGradient id="bg" x1="0" x2="1" y1="0" y2="1">
      <stop offset="0" stop-color="#f8fafc"/>
      <stop offset=".62" stop-color="#ffffff"/>
      <stop offset="1" stop-color="#ecfdf5"/>
    </linearGradient>
    <filter id="shadow" x="-15%" y="-15%" width="130%" height="130%">
      <feDropShadow dx="0" dy="18" stdDeviation="18" flood-color="#0f172a" flood-opacity=".1"/>
    </filter>
  </defs>
  <rect width="1200" height="680" rx="42" fill="url(#bg)"/>
  <path d="M95 520h1010" stroke="#cbd5e1" stroke-width="6" stroke-linecap="round"/>
  <g filter="url(#shadow)" fill="none" stroke-linecap="round" stroke-linejoin="round">
    <g stroke="#1f2937" stroke-width="16">
      <circle cx="178" cy="320" r="36" fill="#ffffff"/>
      <path d="M178 358v96M134 410h88M178 454l-48 58M178 454l52 58"/>
    </g>
    <g stroke="#1f2937" stroke-width="17">
      <circle cx="362" cy="278" r="42" fill="#ffffff"/>
      <path d="M362 322v132M312 386h100M362 454l-56 66M362 454l62 66"/>
      <path d="M415 358l50-40" stroke="#10b981"/>
    </g>
    <g stroke="#1f2937" stroke-width="18">
      <circle cx="565" cy="238" r="46" fill="#ffffff"/>
      <path d="M565 286v168M508 354h115M565 454l-70 74M565 454l76 74"/>
      <path d="M623 342h92" stroke="#10b981"/>
    </g>
    <g stroke="#1f2937" stroke-width="18">
      <circle cx="790" cy="278" r="44" fill="#ffffff"/>
      <path d="M790 322v132M742 382h86M790 454l-52 66M790 454l58 66"/>
      <path d="M850 340v180" stroke="#64748b"/>
    </g>
    <g stroke="#1f2937" stroke-width="17">
      <circle cx="986" cy="302" r="42" fill="#ffffff"/>
      <path d="M986 346v84M934 398h104"/>
      <circle cx="922" cy="494" r="52"/>
      <circle cx="1054" cy="494" r="52"/>
      <path d="M922 494h132M952 430h92M986 430l-38 48M986 430l46 48"/>
      <path d="M1042 360h58" stroke="#10b981"/>
    </g>
  </g>
  <g fill="#10b981">
    <circle cx="178" cy="454" r="9"/>
    <circle cx="362" cy="454" r="9"/>
    <circle cx="565" cy="454" r="9"/>
    <circle cx="790" cy="454" r="9"/>
    <circle cx="986" cy="430" r="9"/>
  </g>
  <path d="M120 565c220 44 740 44 960 0" fill="none" stroke="#10b981" stroke-width="8" stroke-linecap="round" opacity=".28"/>
</svg>
