<svg xmlns="http://www.w3.org/2000/svg" viewBox="0 0 1200 680" role="img" aria-labelledby="title desc">
  <title id="title">Original technology friction illustration</title>
  <desc id="desc">An original abstract illustration showing confusing digital friction being simplified into a clean tool flow.</desc>
  <defs>
    <linearGradient id="bg" x1="0" x2="1" y1="0" y2="1">
      <stop offset="0" stop-color="#fff7ed"/>
      <stop offset=".58" stop-color="#f8fafc"/>
      <stop offset="1" stop-color="#ecfdf5"/>
    </linearGradient>
    <linearGradient id="line" x1="0" x2="1">
      <stop offset="0" stop-color="#ff6842"/>
      <stop offset="1" stop-color="#10b981"/>
    </linearGradient>
    <filter id="soft" x="-20%" y="-20%" width="140%" height="140%">
      <feDropShadow dx="0" dy="18" stdDeviation="18" flood-color="#0f172a" flood-opacity=".14"/>
    </filter>
  </defs>
  <rect width="1200" height="680" rx="42" fill="url(#bg)"/>
  <g opacity=".2" fill="none" stroke="#94a3b8" stroke-width="2">
    <path d="M120 160h170m-120 54h240m-210 54h130M880 170h160m-120 54h200m-230 54h130"/>
    <circle cx="170" cy="160" r="8"/>
    <circle cx="955" cy="170" r="8"/>
  </g>
  <g filter="url(#soft)">
    <rect x="214" y="192" width="300" height="250" rx="32" fill="#111827"/>
    <path d="M260 245h188M260 292h126M260 339h160M260 386h96" stroke="#64748b" stroke-width="18" stroke-linecap="round"/>
    <path d="M463 242l-62 62m0-62l62 62" stroke="#ff6842" stroke-width="18" stroke-linecap="round"/>
  </g>
  <path d="M520 340c74-118 210-118 284 0" fill="none" stroke="url(#line)" stroke-width="18" stroke-linecap="round"/>
  <path d="M790 307l40 32-47 20" fill="none" stroke="#10b981" stroke-width="18" stroke-linecap="round" stroke-linejoin="round"/>
  <g filter="url(#soft)">
    <rect x="706" y="192" width="300" height="250" rx="32" fill="#ffffff" stroke="#dbe4e2" stroke-width="3"/>
    <circle cx="782" cy="270" r="42" fill="#d1fae5"/>
    <path d="M758 270l18 18 42-50" fill="none" stroke="#10b981" stroke-width="15" stroke-linecap="round" stroke-linejoin="round"/>
    <path d="M768 353h164M768 395h104" stroke="#94a3b8" stroke-width="18" stroke-linecap="round"/>
  </g>
  <g fill="#10b981" opacity=".18">
    <circle cx="600" cy="134" r="26"/>
    <circle cx="636" cy="548" r="34"/>
    <circle cx="1050" cy="505" r="18"/>
  </g>
</svg>
